# xmcd
#
# Track frame offsets: 
#        150
#        17327
#        31850
#        44622
#        59337
#        73027
#        85822
#        98562
#        112190
#        126730
#        138747
#        155075
#        170257
#        183775
#        194940
#
# Disc length: 2793 seconds
#
# Revision: 0
# Processed by: cddbd v1.5.2PL0 Copyright (c) Steve Scherf et al.
# Submitted via: ExactAudioCopy v1.0b1
#
DISCID=da0ae70f
DTITLE=Kent Gray - I Know How She Feels
DYEAR=2000
DGENRE=Country
TTITLE0=I Know How She Feels
TTITLE1=Everything's Cool
TTITLE2=Rockin' Down Heavens Door
TTITLE3=It's Got The Best Of Me
TTITLE4=No Free Rides
TTITLE5=The Devil's Daughter
TTITLE6=Mama's Answered Prayers
TTITLE7=I'm In Good Shape
TTITLE8=Black and White and Blue
TTITLE9=The Power You Have Over Me
TTITLE10=Brand New Flame
TTITLE11=I Gotta Learn How To Dance
TTITLE12=She Took Everything But The Blame
TTITLE13=She's Got It All
TTITLE14=Except My Guitar
EXTD=
EXTT0=
EXTT1=
EXTT2=
EXTT3=
EXTT4=
EXTT5=
EXTT6=
EXTT7=
EXTT8=
EXTT9=
EXTT10=
EXTT11=
EXTT12=
EXTT13=
EXTT14=
PLAYORDER=
